<?xml version="1.0" encoding="UTF-8"?>
<svg id="Layer_2" data-name="Layer 2" xmlns="http://www.w3.org/2000/svg" viewBox="0 0 607.39 612.83">
  <defs>
    <style>
      .cls-1 {
        fill: #8eac3b;
      }
    </style>
  </defs>
  <g id="Layer_1-2" data-name="Layer 1">
    <g>
      <path class="cls-1" d="m335.4,434.68c2.12,13.71,3.77,27.66,6.6,41.37,1.45,6.99,4.25,13.98,7.77,20.22,8.73,15.45,21.55,17.26,34.77,5.24,4.23-3.84,7.63-8.6,12.02-13.63,3.5,4.56,6.24,8.62,9.46,12.25,13.27,15,29.3,14.13,36.34-4.31,5.43-14.25,5.63-30.6,7.29-46.12.55-5.12-1.62-10.54-2.77-17.11,4.05.98,6.88,1.83,9.77,2.33,13.79,2.37,20.53-1.55,21.18-15.64,1.02-22.18,1.52-44.56-.32-66.65-5.3-63.78-11.75-127.47-17.98-191.17-4.12-42.14,9.42-78.01,38.87-107.68,15.37-15.49,29.51-11.44,34.09,10.03,3.87,18.1,2.14,37.62,7.43,55.14,12.83,42.51,27.01,84.71,42.98,126.14,31.21,80.97,35.28,161.47-3.67,240.5-60.86,123.48-193.44,162.85-311.76,92.57-25.92-15.4-51.45-33.74-71.89-55.65-53.54-57.42-104.8-117.01-155.54-176.95-14.47-17.1-24.6-38.03-35.68-57.78-6.63-11.82-5.2-24.68.77-36.74,6.87-13.89,18.78-17.85,31.42-8.92,8.38,5.92,15.73,13.77,22.2,21.84,23.3,29.06,45.85,58.73,69.11,87.83,5.29,6.63,11.56,13.1,18.74,17.35,3.97,2.35,12.06,1.78,15.82-.92,2.72-1.96,3.03-10.17,1.46-14.52-2.23-6.18-6.86-11.64-11.03-16.97-42.55-54.39-85.17-108.72-127.89-162.98-8.95-11.37-12.79-23.98-10.4-38.21,2.07-12.31,7.72-22.75,20.07-27.08,12.59-4.41,22.07,2.37,29.78,11.43,16.19,19.03,32.31,38.15,47.97,57.62,29.05,36.11,57.76,72.5,86.61,108.77,1.41,1.78,2.5,4.35,4.34,5.15,4.54,1.98,9.43,3.15,14.19,4.65,1.08-4.99,4.43-10.92,2.81-14.77-4.32-10.33-9.76-20.55-16.55-29.45-38.04-49.84-76.63-99.26-114.99-148.87-7.23-9.34-14.38-18.75-21.33-28.3-13.11-18.02-9.6-41.73,7.99-55.37,14.74-11.42,32.89-8.69,47.55,9.92,32.88,41.75,64.84,84.22,96.84,126.66,12.3,16.32,23.12,33.77,35.73,49.83,6.88,8.76,15.76,16.09,24.46,23.18,2.45,2,7.47.83,11.31,1.12.05-4.21,1.34-8.94-.14-12.52-2.38-5.79-6.3-11.03-10.06-16.14-35.53-48.31-71.2-96.53-106.77-144.81-9.98-13.55-10.86-28.64-2.68-41.89,8.7-14.11,22.59-18.41,37.58-11.26,4.04,1.93,8.25,4.3,11.23,7.54,38.43,41.69,81.19,79.64,111.66,128.24,24.82,39.57,30.64,82.94,24.88,128.44-.73,5.8-1.6,12.16-4.49,17.03-14.38,24.28-21.33,52.64-42.94,73.09-16.33,15.46-17.36,60.07-4,78.13,7.24,9.79,15.25,9.42,29.76-1.19Z"/>
      <path class="cls-1" d="m389.66,301.67c10.83-.49,21.88-2.51,32.39-.91,6.28.96,15.34,6.72,16.56,11.87,1.47,6.23-1.91,17.43-6.92,20.65-15.01,9.63-22.19,23.45-27.22,39.2-2.86,8.94-6.65,16.52-17.66,14.61-10.18-1.76-14.09-8.29-15.89-18.87-1.73-10.14-7.05-20.11-12.62-29-4.13-6.59-10.72-11.59-5.16-20.15,5.87-9.05,10.95-19.32,24.31-18.68,4.07.2,8.14.53,12.2.8,0,.16.01.32.02.47Z"/>
      <path class="cls-1" d="m395.12,442.38c2.1-16.65,8.32-28.56,17.08-29.67,9.09-1.15,17.74,8.3,21.66,24.17,3.14,12.7,3.34,25.19-5.26,36.18-8.18,10.44-15.65,10.65-22.04-.86-5.12-9.22-7.72-19.83-11.44-29.83Z"/>
      <path class="cls-1" d="m349.19,443.65c2-13.92,1.45-26.86,14.28-28.78,13.27-1.99,16.14,10.64,19.4,20.51,3.9,11.81,3.65,23.36-4.37,33.59-7.2,9.18-14.71,9.32-20.18-.76-4.62-8.52-6.89-18.32-9.12-24.56Z"/>
      <path class="cls-1" d="m320.63,413.35c-9.47-19.68-6.29-42.41,6.67-54.59,7.09-6.66,12.16-5.91,17.1,2.45,12.25,20.74,2.76,42.42-23.77,52.14Z"/>
      <path class="cls-1" d="m458.67,404.59c-25.77-6.11-34.81-23.83-24.56-39.81,6.46-10.07,14.65-10.13,18.36,1.32,3.73,11.51,4.05,24.13,6.2,38.49Z"/>
    </g>
  </g>
</svg>